<svg viewBox="0 0 120 120" version="1.1"><g fill="none"><rect x="0" y="0" width="120" height="120"></rect><path d="M41.1548735,45.3237567 C58.3101011,45.3237567 72.2793579,57.5273265 72.2793579,72.6022645 C72.2793579,79.0628199 69.7107867,85.0109784 65.398415,89.730033 L65.780193,90.6588797 C66.732127,92.8038145 68.5487356,95.6988661 72.2793579,97.1853582 L71.595348,97.3496597 L70.8735952,97.4936964 C70.7396092,97.5177328 70.6000103,97.5412164 70.4566492,97.5632953 L70.0171301,97.6244656 C67.245901,98.0367922 62.5187875,98.1387156 58.1027303,95.470175 C53.1729588,98.2406391 47.4184168,99.8806797 41.1548735,99.8806797 C23.8983169,99.8806797 9.92858887,87.6772025 9.92858887,72.6022645 C9.92858887,57.5273265 23.8983169,45.3237567 41.1548735,45.3237567 Z" id="Path-Copy" fill="#D2D7FF" fill-rule="nonzero" transform="translate(41.103973, 72.602218) scale(-1, 1) translate(-41.103973, -72.602218) "></path><path d="M73.0667569,20.1899309 C93.435437,20.1899309 110.021362,34.6794273 110.021362,52.5781458 C110.021362,60.248868 106.971656,67.3112131 101.851507,72.9142233 L102.304798,74.017058 C103.435045,76.5637739 105.591934,80.0011157 110.021362,81.7660519 L109.209226,81.9611297 L108.352277,82.1321468 C108.193194,82.1606856 108.027446,82.1885681 107.857231,82.2147827 L107.335383,82.2874112 C104.045057,82.7769733 98.4324786,82.8979886 93.1892222,79.7295871 C87.3360246,83.019004 80.5035635,84.9662508 73.0667569,84.9662508 C52.5777672,84.9662508 35.9912824,70.4768643 35.9912824,52.5781458 C35.9912824,34.6794273 52.5777672,20.1899309 73.0667569,20.1899309 Z" id="Path" fill="#8A8FB2" fill-rule="nonzero"></path></g></svg>