<svg viewBox="0 0 120 120" version="1.1"><g fill="none"><rect x="0" y="0" width="120" height="120"></rect><path d="M60.0746418,20.0878906 C85.2316967,20.0878906 105.716727,37.9836529 105.716727,60.0900948 C105.716727,69.5640901 101.95008,78.2866878 95.62626,85.2068826 L96.1861134,86.5689775 C97.5820642,89.7143885 100.246006,93.9597984 105.716727,96.1396449 L104.71367,96.3805827 L103.655265,96.5918033 C103.458783,96.6270512 103.25407,96.6614884 103.04384,96.6938657 L102.399313,96.7835681 C98.3354813,97.3882189 91.4034687,97.5376832 84.9276004,93.6244374 C77.6984028,97.6871474 69.2597314,100.092163 60.0746418,100.092163 C34.7689944,100.092163 14.2832729,82.1965367 14.2832729,60.0900948 C14.2832729,37.9836529 34.7689944,20.0878906 60.0746418,20.0878906 Z" fill="#A16F83" fill-rule="nonzero" transform="translate(60.000000, 60.090027) scale(-1, 1) translate(-60.000000, -60.090027) "></path><path d="M60.640045,70.1908781 C60.6440439,70.1908781 60.6424368,69.0449676 60.6440439,68.9837774 C60.6694224,68.0174646 60.7859416,67.1605205 60.9936014,66.4129452 C61.2301732,65.5612868 61.6086881,64.7569427 62.129146,63.9999131 C62.6496039,63.2428834 63.3001762,62.5213395 64.0808631,61.8352813 C64.8615499,61.1492232 65.7723513,60.4040221 66.8132671,59.5996781 C68.2326977,58.5587623 69.5220139,57.5178465 70.6812156,56.4769307 C71.8404173,55.4360149 72.8340187,54.3477847 73.6620199,53.2122402 C74.4900211,52.0766957 75.1287649,50.8583511 75.5782513,49.5572063 C76.0277376,48.2560616 76.2524808,46.8011451 76.2524808,45.1924571 C76.2524808,40.8868508 74.7857358,37.6694747 71.8522458,35.5403287 C68.9187559,33.4111828 64.8733785,32.3466098 59.7161139,32.3466098 C57.5396536,32.3466098 55.4814791,32.6186673 53.5415906,33.1627824 C51.601702,33.7068975 49.8983853,34.4639272 48.4316403,35.4338714 C46.9648953,36.4038157 45.8175222,37.5275316 44.989521,38.8050192 C44.1615198,40.0825068 43.7475192,41.4782802 43.7475192,42.9923396 C43.7475192,43.9386267 43.924948,44.8139423 44.2798057,45.6182863 C44.6346633,46.4226303 45.2142642,47.0850313 46.0186082,47.6054892 L53.6835337,47.6054892 L53.6835337,43.985941 C53.6835337,41.9041094 54.1448486,40.1889641 55.0674785,38.840505 C55.9901084,37.4920459 57.5159964,36.8178163 59.6451423,36.8178163 C61.6796596,36.8178163 63.2765191,37.3619314 64.4357208,38.4501615 C65.5949224,39.5383917 66.1745233,41.1234226 66.1745233,43.2052542 C66.1745233,44.4354274 65.9616087,45.5000004 65.5357795,46.3989731 C65.1099503,47.2979459 64.5540066,48.1259471 63.8679485,48.8829768 C63.1818904,49.6400064 62.4248607,50.3497217 61.5968595,51.0121227 C60.7688583,51.6745237 59.9526856,52.384239 59.1483416,53.1412687 C57.2557674,54.8918998 55.9191369,56.5715594 55.1384501,58.1802474 C54.3577632,59.7889355 53.9674198,61.6341953 53.9674198,63.7160269 C53.9674198,65.3720294 54.3222774,66.8860887 55.0319928,68.258205 C55.1796424,68.5436609 55.327292,68.8158061 55.4749416,69.0746405 C55.7002996,69.4697002 55.9256576,69.8337512 56.1510157,70.1667934 C58.935427,69.8513247 58.9236977,69.8513247 60.640045,70.1908781 Z M58.935427,89.1238354 C60.8280012,89.1238354 62.4248607,88.473263 63.7260054,87.1721183 C65.0271502,85.8709735 65.6777226,84.2977712 65.6777226,82.4525114 C65.6777226,80.5126229 65.0271502,78.8921062 63.7260054,77.5909615 C62.4248607,76.2898167 60.8280012,75.6392443 58.935427,75.6392443 C57.0901672,75.6392443 55.5051363,76.2898167 54.1803344,77.5909615 C52.8555324,78.8921062 52.1931315,80.5126229 52.1931315,82.4525114 C52.1931315,84.2977712 52.8555324,85.8709735 54.1803344,87.1721183 C55.5051363,88.473263 57.0901672,89.1238354 58.935427,89.1238354 Z" fill="#EDD9DE" fill-rule="nonzero"></path></g></svg>