<svg viewBox="0 0 120 120" version="1.1">
                <g fill="none">
                    <g transform="translate(0.000000, -0.051270)">
                        <rect x="0" y="0.0512695312" width="120" height="120"></rect>
                        <path d="M81.5140065,100.213958 C86.7969917,100.213958 91.1365867,98.7045339 94.5327914,95.6856852 C97.9289962,92.6668366 99.6270985,88.5159196 99.6270985,83.2329345 C99.6270985,78.8933395 98.4478608,75.2612872 96.0893853,72.3367776 C93.7309097,69.4122679 90.6648916,67.478318 86.8913307,66.5349278 L86.8913307,66.5349278 L76.4196994,66.5349278 C76.4196994,59.7425183 78.7781749,53.3746344 83.495126,47.4312761 C88.212077,41.4879178 96.6082499,37.1011533 108.683645,34.2709827 L108.683645,34.2709827 L108.683645,24.3653855 C100.193133,25.1200976 92.9290281,27.1483866 86.8913307,30.4502523 C80.8536334,33.7521181 75.8536653,37.7143569 71.8914264,42.336969 C67.9291875,46.959581 65.0518474,51.9595491 63.259406,57.3368733 C61.4669646,62.7141975 60.5707439,68.0443521 60.5707439,73.3273373 C60.5707439,76.534864 60.9952695,79.7423907 61.8443207,82.9499174 C62.6933719,86.1574441 63.9669487,89.0347843 65.665051,91.5819378 C67.3631534,94.1290914 69.5329509,96.2045498 72.1744435,97.8083132 C74.8159361,99.4120766 77.9291237,100.213958 81.5140065,100.213958 Z" fill="#C69259" fill-rule="nonzero"></path>
                        <path d="M31.9432626,95.8485727 C37.2262478,95.8485727 41.5658427,94.3391484 44.9620475,91.3202997 C48.3582522,88.3014511 50.0563546,84.1505342 50.0563546,78.867549 C50.0563546,74.527954 48.8771169,70.8959017 46.5186413,67.9713921 C44.1601658,65.0468824 41.0941476,63.1129325 37.3205868,62.1695423 L37.3205868,62.1695423 L26.8489555,62.1695423 C26.8489555,55.3771328 29.207431,49.0092489 33.9243821,43.0658906 C38.6413331,37.1225323 47.037506,32.7357678 59.1129006,29.9055972 L59.1129006,29.9055972 L59.1129006,20 C50.6223887,20.7547122 43.3582841,22.7830011 37.3205868,26.0848668 C31.2828895,29.3867326 26.2829214,33.3489714 22.3206825,37.9715835 C18.3584436,42.5941955 15.4811035,47.5941636 13.6886621,52.9714878 C11.8962207,58.348812 11,63.6789666 11,68.9619518 C11,72.1694785 11.4245256,75.3770052 12.2735768,78.5845319 C13.122628,81.7920586 14.3962047,84.6693988 16.0943071,87.2165523 C17.7924095,89.7637059 19.962207,91.8391644 22.6036996,93.4429277 C25.2451921,95.0466911 28.3583798,95.8485727 31.9432626,95.8485727 Z" fill="#A3743D" fill-rule="nonzero"></path>
                    </g>
                </g>
            </svg>